{"title":"Chasmen baddoor 2013 cam rip (ictv) - Hindi","uid":8345135,"size":548521988,"categoryP":"video","categoryS":"movies","magnet":"?xt=urn:btih:60ee9411c8feff2a1d4c2465579405cd8868d618&amp;dn=Chasmen+baddoor+2013+cam+rip+%28ictv%29+-+Hindi&amp;tr=udp%3A%2F%2Ftracker.openbittorrent.com%3A80&amp;tr=udp%3A%2F%2Fopen.demonii.com%3A1337&amp;tr=udp%3A%2F%2Ftracker.coppersurfer.tk%3A6969&amp;tr=udp%3A%2F%2Fexodus.desync.com%3A6969","seeders":1,"leechers":0,"uploader":"SJonam","files":1,"time":1365181057,"description":" &lt;a href=&quot;http://desibbrg.org/images/66952052392581364616.gif&quot; rel=&quot;nofollow&quot; target=&quot;_NEW&quot;&gt;http://desibbrg.org/images/66952052392581364616.gif&lt;/a&gt; &lt;a href=&quot;\nhttp://desibbrg.org/images/50103775576814531961.jpg&quot; rel=&quot;nofollow&quot; target=&quot;_NEW&quot;&gt;\nhttp://desibbrg.org/images/50103775576814531961.jpg&lt;/a&gt; &lt;a href=&quot;\nhttp://desibbrg.org/images/78284805950985978110.png&quot; rel=&quot;nofollow&quot; target=&quot;_NEW&quot;&gt;\nhttp://desibbrg.org/images/78284805950985978110.png&lt;/a&gt; &lt;a href=&quot;\nhttp://desibbrg.org/images/67500612178195814729.png&quot; rel=&quot;nofollow&quot; target=&quot;_NEW&quot;&gt;\nhttp://desibbrg.org/images/67500612178195814729.png&lt;/a&gt; &lt;a href=&quot;\nhttp://desibbrg.org/images/30493657249683336533.png&quot; rel=&quot;nofollow&quot; target=&quot;_NEW&quot;&gt;\nhttp://desibbrg.org/images/30493657249683336533.png&lt;/a&gt; &lt;a href=&quot;\nhttp://desibbrg.org/images/06203605092595839643.png&quot; rel=&quot;nofollow&quot; target=&quot;_NEW&quot;&gt;\nhttp://desibbrg.org/images/06203605092595839643.png&lt;/a&gt;\n\nMedia Info - \nVideo\nID : 224 (0xE0)\nFormat : MPEG Video\nFormat version : Version 1\nFormat settings, BVOP : Yes\nFormat settings, Matrix : Custom\nDuration : 1h 48mn\nBit rate mode : Variable\nBit rate : 600 Kbps\nWidth : 352 pixels\nHeight : 288 pixels\nDisplay aspect ratio : 4:3\nFrame rate : 25.000 fps\nStandard : PAL\nColor space : YUV\nBit depth : 8 bits\nScan type : Progressive\nCompression mode : Lossy\nBits/(Pixel*Frame) : 0.237\nStream size : 463 MiB (89%)\nWriting library : TMPGEnc Video Mastering Works 5 Version. 5.0.5.32\n\nAudio\nID : 192 (0xC0)\nFormat : MPEG Audio\nFormat version : Version 1\nFormat profile : Layer 2\nDuration : 1h 48mn\nBit rate mode : Constant\nBit rate : 64.0 Kbps\nChannel(s) : 2 channels\nSampling rate : 48.0 KHz\nCompression mode : Lossy\nStream size : 49.7 MiB (9%)\n\nRipper : Master Mind\n\nSeeding 24x7... Extreme Seeding...\n\n\nEnjoy!\n","torrent":{"xt":"urn:btih:60ee9411c8feff2a1d4c2465579405cd8868d618","amp;dn":"Chasmen+baddoor+2013+cam+rip+%28ictv%29+-+Hindi","amp;tr":["udp%3A%2F%2Ftracker.openbittorrent.com%3A80","udp%3A%2F%2Fopen.demonii.com%3A1337","udp%3A%2F%2Ftracker.coppersurfer.tk%3A6969","udp%3A%2F%2Fexodus.desync.com%3A6969"],"infoHash":"60ee9411c8feff2a1d4c2465579405cd8868d618","infoHashBuffer":{"type":"Buffer","data":[96,238,148,17,200,254,255,42,29,76,36,101,87,148,5,205,136,104,214,24]},"announce":[],"urlList":[]}}